<?xml version="1.0" encoding="utf-8"?>
<!-- Generator: Adobe Illustrator 21.0.0, SVG Export Plug-In . SVG Version: 6.00 Build 0)  -->
<svg version="1.1" id="Countryflags.com" xmlns="http://www.w3.org/2000/svg" xmlns:xlink="http://www.w3.org/1999/xlink" x="0px"
	 y="0px" viewBox="0 0 300 300" enable-background="new 0 0 300 300" xml:space="preserve">
<g>
	<defs>
		<rect id="SVGID_1_" width="300" height="300"/>
	</defs>
	<clipPath id="SVGID_2_">
		<use xlink:href="#SVGID_1_"  overflow="visible"/>
	</clipPath>
	<g clip-path="url(#SVGID_2_)">
		<rect id="_x31_4_1_" x="-149.999" y="0" fill="#FFFFFF" width="599.685" height="299.966"/>
		<polygon id="_x31_3_1_" fill="#CF142B" points="119.856,179.889 119.856,299.966 179.831,299.966 179.831,179.889 
			449.687,179.889 449.687,119.921 179.831,119.921 179.831,0 119.856,0 119.856,119.921 -150,119.921 -150,179.889 		"/>
		<polygon id="_x31_2_1_" fill="#00247D" points="199.83,97.099 199.83,0 393.99,0 		"/>
		<polygon id="_x31_1_1_" fill="#00247D" points="199.83,202.867 199.83,299.966 393.99,299.966 		"/>
		<polygon id="_x31_0_1_" fill="#00247D" points="99.856,202.867 99.856,299.966 -94.303,299.966 		"/>
		<polygon id="_x39__1_" fill="#00247D" points="99.856,97.099 99.856,0 -94.303,0 		"/>
		<polygon id="_x38__1_" fill="#00247D" points="-149.999,27.885 -149.999,99.986 -5.825,99.986 		"/>
		<polygon id="_x37__1_" fill="#00247D" points="449.686,27.885 449.686,99.986 305.511,99.986 		"/>
		<polygon id="_x36__1_" fill="#00247D" points="449.685,272.081 449.685,199.98 305.511,199.98 		"/>
		<polygon id="_x35__1_" fill="#00247D" points="-149.999,272.081 -149.999,199.98 -5.825,199.98 		"/>
		<polyline id="_x34__1_" fill="#CF142B" points="449.686,0 416.378,0 216.8,99.986 250.108,99.986 450,0 		"/>
		<polyline id="_x33_" fill="#CF142B" points="82.886,199.975 49.578,199.975 -150,299.961 -116.692,299.961 83.2,199.975 		"/>
		<polygon id="_x32__1_" fill="#CF142B" points="16.535,100.064 49.842,100.064 -149.999,0 -150,16.77 		"/>
		<polygon id="_x31__1_" fill="#CF142B" points="283.045,199.936 249.737,199.936 449.579,300 449.58,283.23 		"/>
	</g>
</g>
</svg>
