<?xml version="1.0" encoding="utf-8"?>
<!-- Generator: Adobe Illustrator 21.0.0, SVG Export Plug-In . SVG Version: 6.00 Build 0)  -->
<svg version="1.1" id="Countryflags.com" xmlns="http://www.w3.org/2000/svg" xmlns:xlink="http://www.w3.org/1999/xlink" x="0px"
	 y="0px" viewBox="0 0 300 300" enable-background="new 0 0 300 300" xml:space="preserve">
<g>
	<defs>
		<rect id="SVGID_1_" width="300" height="300"/>
	</defs>
	<clipPath id="SVGID_2_">
		<use xlink:href="#SVGID_1_"  overflow="visible"/>
	</clipPath>
	<g clip-path="url(#SVGID_2_)">
		<rect id="_x38__1_" x="-45" fill="#EE1C25" width="450" height="300"/>
		<rect id="_x37__1_" x="-45" fill="#0B4EA2" width="450" height="200"/>
		<rect id="_x36__1_" x="-45" fill="#FFFFFF" width="450" height="100"/>
		<path id="_x35__1_" fill="#FFFFFF" d="M113.127,231.75c-26.891-12.953-65.355-38.661-65.355-89.517s2.431-73.983,2.431-73.983
			h62.924h62.925c0,0,2.432,23.128,2.432,73.983S140.02,218.797,113.127,231.75z"/>
		<path id="_x34__1_" fill="#EE1C25" d="M113.127,225.001c-24.67-11.883-59.959-35.469-59.959-82.126
			C53.168,96.218,55.399,75,55.399,75h57.728h57.729c0,0,2.231,21.218,2.231,67.874
			C173.088,189.531,137.799,213.117,113.127,225.001z"/>
		<g id="Group_1">
			<defs>
				<path id="_x31__1_" d="M113.127,225.001c-24.67-11.883-59.959-35.469-59.959-82.126C53.168,96.218,55.399,75,55.399,75h57.728
					h57.729c0,0,2.231,21.218,2.231,67.874C173.088,189.531,137.799,213.117,113.127,225.001z"/>
			</defs>
			<clipPath id="_x31__2_">
				<use xlink:href="#_x31__1_"  overflow="visible"/>
			</clipPath>
			<path id="_x33__1_" clip-path="url(#_x31__2_)" fill="#FFFFFF" d="M118.403,130.642c6.68,0.108,19.713,0.37,31.318-3.514
				c0,0-0.306,4.153-0.306,8.99c0,4.839,0.306,8.991,0.306,8.991c-10.645-3.562-23.79-3.636-31.318-3.541v25.77h-10.551v-25.77
				c-7.527-0.095-20.672-0.021-31.317,3.541c0,0,0.306-4.152,0.306-8.991c0-4.837-0.306-8.99-0.306-8.99
				c11.605,3.883,24.637,3.622,31.317,3.514v-16.184c-6.088-0.054-14.862,0.237-24.782,3.557c0,0,0.307-4.153,0.307-8.991
				c0-4.838-0.307-8.991-0.307-8.991c9.905,3.314,18.668,3.61,24.754,3.557c-0.312-10.248-3.298-23.165-3.298-23.165
				s6.145,0.479,8.601,0.479c2.458,0,8.602-0.479,8.602-0.479s-2.985,12.917-3.298,23.165c6.087,0.053,14.85-0.243,24.754-3.557
				c0,0-0.307,4.153-0.307,8.991c0,4.838,0.307,8.991,0.307,8.991c-9.919-3.32-18.693-3.61-24.782-3.557V130.642z"/>
			<path id="_x32__1_" clip-path="url(#_x31__2_)" fill="#0B4EA2" d="M112.041,240.307l-51.118-45.565
				c0,0,6.535-21.136,19.291-21.136c10.136,0,13.836,8.173,13.836,8.173s6.655-17.228,19.078-17.228
				c12.424,0,19.08,17.228,19.08,17.228s3.698-8.173,13.835-8.173c12.756,0,19.29,21.136,19.29,21.136L112.041,240.307z"/>
		</g>
	</g>
</g>
</svg>
