<?xml version="1.0" encoding="utf-8"?>
<!-- Generator: Adobe Illustrator 21.0.0, SVG Export Plug-In . SVG Version: 6.00 Build 0)  -->
<svg version="1.1" id="Layer_1" xmlns="http://www.w3.org/2000/svg" xmlns:xlink="http://www.w3.org/1999/xlink" x="0px" y="0px"
	 viewBox="0 0 266 294" enable-background="new 0 0 266 294" xml:space="preserve">
<path fill="#FFFFFF" d="M132.996,289.589c0,0-4.81-5.819-9.66-10.669c-3.88-3.88-24.247-4.849-54.801-12.827
	c-41.2-15.286-63.31-43.257-64.496-85.132c-0.422-11.837,2.572-24.512,8.419-37.886c5.698-12.556,8.469-26.205,9.039-40.676
	c-0.884-18.165-5.451-35.942-13.578-53.344c21.201-4.09,35.262-18.553,42.675-42.675c26.245,25.221,53.544,27.553,82.402-1.94l0,0
	c28.858,29.493,56.196,27.161,82.441,1.94c7.413,24.122,21.474,38.586,42.675,42.675c-8.128,17.402-12.694,35.179-13.578,53.344
	c0.57,14.47,3.341,28.119,9.039,40.676c5.847,13.374,8.841,26.048,8.419,37.886c-1.186,41.875-23.296,69.846-64.496,85.132
	c-30.553,7.978-50.921,8.947-54.801,12.827C137.845,283.77,132.996,289.589,132.996,289.589L132.996,289.589z"/>
<path fill="#0C0C0C" d="M132.995,15.071c14.104,12.018,28.652,18.099,43.358,18.099c12.438,0,24.833-4.359,36.992-12.986
	c3.709,7.537,8.228,14.005,13.513,19.327c5.826,5.867,12.599,10.387,20.232,13.516c-5.921,15.579-9.305,31.49-10.082,47.454
	l-0.024,0.484l0.019,0.484c0.668,16.948,4.119,32.415,10.26,45.976c5.495,12.588,8.099,24.095,7.738,34.199l-0.001,0.04l-0.001,0.04
	c-1.07,37.754-20.312,63.137-58.819,77.583c-14.008,3.635-25.707,5.773-35.132,7.496c-14.159,2.589-21.266,3.888-25.832,8.454
	c-0.741,0.741-1.48,1.5-2.203,2.257c-0.722-0.757-1.459-1.516-2.201-2.257c-4.566-4.566-11.673-5.865-25.832-8.454
	c-9.424-1.723-21.123-3.862-35.132-7.496c-38.507-14.446-57.749-39.829-58.819-77.583l-0.001-0.04l-0.001-0.04
	c-0.36-10.105,2.243-21.611,7.738-34.199c6.141-13.561,9.593-29.028,10.26-45.976l0.019-0.484l-0.024-0.484
	c-0.777-15.963-4.161-31.875-10.082-47.454c7.633-3.128,14.406-7.649,20.232-13.516c5.285-5.322,9.804-11.79,13.513-19.327
	C64.841,28.811,77.229,33.17,89.657,33.17C104.352,33.17,118.894,27.089,132.995,15.071 M132.995,0.015
	c-14.824,15.15-29.248,22.155-43.338,22.155c-14.191,0-28.044-7.107-41.621-20.155c-7.643,24.871-22.141,39.783-44,44
	c8.38,17.942,13.089,36.271,14,55c-0.588,14.92-3.445,28.992-9.32,41.938c-6.028,13.789-9.115,26.857-8.68,39.062
	c1.223,43.175,24.019,72.015,66.498,87.775c31.502,8.225,52.502,9.225,56.502,13.225c5,5,9.959,11,9.959,11s5-6,10-11
	c4-4,25-5,56.502-13.225c42.479-15.76,65.275-44.6,66.498-87.775c0.435-12.204-2.652-25.273-8.68-39.062
	c-5.875-12.946-8.732-27.019-9.32-41.938c0.911-18.729,5.62-37.058,14-55c-21.859-4.217-36.357-19.129-44-44
	c-13.579,13.05-27.439,20.155-41.642,20.155C162.254,22.17,147.817,15.164,132.995,0.015L132.995,0.015z"/>
<path d="M133.015,265.276c-6.109-3.711-14.045-5.162-26.234-7.391c-9.147-1.672-20.475-3.743-33.906-7.206
	c-34.414-13.053-50.897-34.786-51.847-68.319l-0.005-0.153c-0.306-8.582,2.01-18.603,6.883-29.783
	c6.657-14.726,10.396-31.426,11.114-49.643l0.036-0.924l-0.045-0.924c-0.686-14.085-3.269-28.117-7.708-41.923
	c8.865-5.101,17.599-12.685,24.913-23.88C67.15,41.1,78.333,44.11,89.656,44.11c14.842,0,29.361-5.155,43.339-15.357
	c13.981,10.202,28.506,15.357,43.358,15.357c11.333,0,22.522-3.01,33.461-8.981c7.314,11.198,16.047,18.78,24.913,23.882
	c-4.439,13.808-7.022,27.838-7.708,41.923l-0.045,0.923l0.037,0.924c0.718,18.217,4.456,34.918,11.113,49.643
	c4.874,11.182,7.189,21.201,6.884,29.781l-0.005,0.154c-0.951,33.533-17.435,55.267-51.849,68.319
	c-13.431,3.463-24.759,5.534-33.905,7.206C147.061,260.114,139.125,261.565,133.015,265.276z"/>
<line stroke="#FFFFFF" stroke-width="13" stroke-miterlimit="10" x1="216" y1="30" x2="15" y2="181"/>
<line stroke="#FFFFFF" stroke-width="13" stroke-miterlimit="10" x1="234" y1="123" x2="64" y2="250"/>
<path d="M170,201H98c-11,0-20-9-20-20v-72c0-11,9-20,20-20h72c11,0,20,9,20,20v72C190,192,181,201,170,201z"/>
<g>
	<path fill="#FFFFFF" d="M69.062,115.645v57.774c0,19.62,15.963,35.581,35.582,35.581h57.774c19.62,0,35.582-15.962,35.582-35.581
		v-57.774c0-19.621-15.963-35.583-35.582-35.583h-57.774C85.025,80.061,69.062,96.024,69.062,115.645z M162.418,91.501
		c13.312,0,24.142,10.831,24.142,24.143v57.774c0.001,13.312-10.83,24.141-24.142,24.141h-57.774
		c-13.312,0-24.142-10.83-24.142-24.141v-57.774c0-13.312,10.831-24.143,24.142-24.143L162.418,91.501L162.418,91.501z"/>
	<path fill="#FFFFFF" d="M100.308,144.531c0,18.32,14.904,33.224,33.224,33.224c18.319,0,33.223-14.904,33.223-33.224
		s-14.903-33.224-33.223-33.224C115.213,111.307,100.308,126.211,100.308,144.531z M155.314,144.531
		c0,12.011-9.771,21.784-21.783,21.784c-12.012,0-21.784-9.772-21.784-21.784c0-12.012,9.772-21.784,21.784-21.784
		C145.543,122.747,155.314,132.52,155.314,144.531z"/>
	<path fill="#FFFFFF" d="M90.608,109.914c0,2.204,0.892,4.369,2.456,5.926c1.556,1.564,3.722,2.463,5.934,2.463
		c2.205,0,4.37-0.9,5.934-2.463c1.556-1.556,2.456-3.722,2.456-5.926c0-2.212-0.9-4.37-2.456-5.934
		c-1.563-1.563-3.729-2.456-5.934-2.456c-2.212,0-4.378,0.892-5.934,2.456C91.5,105.536,90.608,107.702,90.608,109.914z"/>
</g>
</svg>
