<?xml version="1.0" encoding="utf-8"?>
<!-- Generator: Adobe Illustrator 21.0.0, SVG Export Plug-In . SVG Version: 6.00 Build 0)  -->
<svg version="1.1" id="Layer_1" xmlns="http://www.w3.org/2000/svg" xmlns:xlink="http://www.w3.org/1999/xlink" x="0px" y="0px"
	 viewBox="0 0 266 294" enable-background="new 0 0 266 294" xml:space="preserve">
<rect fill="#0C0C0C" width="294" height="294"/>
<path fill="#FFFFFF" d="M132.98,15.056c14.101,12.018,28.648,18.099,43.351,18.099c12.436,0,24.83-4.359,36.986-12.986
	c3.709,7.537,8.227,14.005,13.511,19.327c5.825,5.867,12.597,10.387,20.229,13.516c-5.92,15.579-9.304,31.49-10.081,47.454
	l-0.024,0.484l0.019,0.484c0.668,16.948,4.119,32.415,10.259,45.976c5.494,12.588,8.097,24.095,7.737,34.199l-0.001,0.04
	l-0.001,0.04c-1.07,37.754-20.309,63.137-58.81,77.583c-14.006,3.635-25.703,5.773-35.126,7.496
	c-14.157,2.589-21.263,3.888-25.828,8.454c-0.741,0.741-1.479,1.5-2.202,2.257c-0.721-0.757-1.459-1.516-2.2-2.257
	c-4.566-4.566-11.671-5.865-25.828-8.454c-9.423-1.723-21.12-3.862-35.126-7.496c-38.501-14.446-57.74-39.829-58.81-77.583
	l-0.001-0.04l-0.001-0.04c-0.36-10.105,2.243-21.611,7.737-34.199c6.14-13.561,9.591-29.028,10.259-45.976l0.019-0.484l-0.024-0.484
	c-0.777-15.963-4.161-31.875-10.081-47.454c7.632-3.128,14.404-7.649,20.229-13.516c5.284-5.322,9.802-11.79,13.511-19.327
	c12.154,8.627,24.54,12.986,36.966,12.986C104.341,33.155,118.88,27.074,132.98,15.056 M132.98,0
	c-14.822,15.15-29.243,22.155-43.332,22.155C75.46,22.155,61.609,15.048,48.033,2C40.391,26.871,25.896,41.783,4.04,46
	c8.379,17.942,13.087,36.271,13.998,55c-0.588,14.92-3.444,28.992-9.318,41.938C2.692,156.727-0.395,169.796,0.04,182
	c1.223,43.175,24.015,72.015,66.488,87.775C98.026,278,119.022,279,123.022,283c4.999,5,9.958,11,9.958,11s4.999-6,9.998-11
	c3.999-4,24.996-5,56.493-13.225c42.473-15.76,65.265-44.6,66.488-87.775c0.435-12.204-2.652-25.273-8.679-39.062
	c-5.874-12.946-8.731-27.019-9.318-41.938c0.911-18.729,5.619-37.058,13.998-55c-21.856-4.217-36.351-19.129-43.993-44
	c-13.577,13.05-27.435,20.155-41.635,20.155C162.235,22.155,147.8,15.149,132.98,0L132.98,0z"/>
<path fill="none" d="M132.98,294c0,0-4.959-6-9.958-11c-3.999-4-24.996-5-56.493-13.225C24.056,254.015,1.264,225.175,0.04,182
	c-0.435-12.205,2.652-25.273,8.679-39.062c5.874-12.946,8.731-27.019,9.318-41.938C17.126,82.271,12.419,63.942,4.04,46
	c21.856-4.217,36.351-19.129,43.993-44c27.055,26.004,55.197,28.409,84.947-2l0,0c29.749,30.409,57.932,28.004,84.987,2
	c7.642,24.871,22.137,39.783,43.993,44c-8.379,17.942-13.087,36.271-13.998,55c0.588,14.92,3.444,28.992,9.318,41.938
	c6.027,13.789,9.114,26.857,8.679,39.062c-1.223,43.175-24.015,72.015-66.488,87.775C167.974,278,146.978,279,142.978,283
	C137.979,288,132.98,294,132.98,294L132.98,294z"/>
<path fill="#FFFFFF" d="M133,265.261c-6.108-3.711-14.043-5.162-26.23-7.391c-9.146-1.672-20.471-3.743-33.901-7.206
	c-34.408-13.053-50.89-34.786-51.839-68.319l-0.005-0.153c-0.306-8.582,2.009-18.603,6.882-29.783
	c6.656-14.726,10.394-31.426,11.112-49.643l0.036-0.924l-0.045-0.924c-0.685-14.085-3.269-28.117-7.706-41.923
	c8.863-5.101,17.596-12.685,24.909-23.88c10.933,5.969,22.114,8.979,33.436,8.979c14.84,0,29.356-5.155,43.332-15.357
	c13.979,10.202,28.502,15.357,43.351,15.357c11.331,0,22.519-3.01,33.456-8.981c7.313,11.198,16.044,18.78,24.909,23.882
	c-4.439,13.808-7.021,27.838-7.707,41.923l-0.045,0.923l0.037,0.924c0.718,18.217,4.455,34.918,11.112,49.643
	c4.873,11.182,7.188,21.201,6.883,29.781l-0.005,0.154c-0.951,33.533-17.432,55.267-51.841,68.319
	c-13.429,3.463-24.755,5.534-33.9,7.206C147.044,260.099,139.108,261.551,133,265.261z"/>
<line fill="none" stroke="#000000" stroke-width="13" stroke-miterlimit="10" x1="215.972" y1="29.985" x2="15.003" y2="180.985"/>
<line fill="none" stroke="#000000" stroke-width="13" stroke-miterlimit="10" x1="233.969" y1="122.985" x2="63.995" y2="249.985"/>
<path fill="#FFFFFF" d="M169.976,200.985H97.993c-11,0-20-9-20-20v-72c0-11,9-20,20-20h71.983c11,0,20,9,20,20v72
	C189.976,191.985,180.976,200.985,169.976,200.985z"/>
<g>
	<path d="M162.397,80.047h-57.765c-19.617,0-35.576,15.963-35.576,35.582v57.774c0,19.62,15.959,35.582,35.576,35.582h57.765
		c19.618,0,35.578-15.963,35.578-35.582v-57.774C197.976,96.01,182.015,80.047,162.397,80.047z M186.537,173.403
		c0,13.312-10.829,24.142-24.139,24.142h-57.766c-13.31,0.001-24.138-10.83-24.138-24.142v-57.774
		c0-13.312,10.828-24.142,24.138-24.142h57.765c13.31,0,24.139,10.831,24.139,24.142L186.537,173.403L186.537,173.403z"/>
	<path d="M133.516,111.294c-18.317,0-33.219,14.904-33.219,33.224c0,18.319,14.902,33.223,33.219,33.223
		s33.219-14.903,33.219-33.223C166.735,126.198,151.833,111.294,133.516,111.294z M133.516,166.299
		c-12.009,0-21.781-9.771-21.781-21.783c0-12.012,9.771-21.784,21.781-21.784s21.781,9.772,21.781,21.784
		C155.296,156.528,145.525,166.299,133.516,166.299z"/>
	<path d="M168.128,101.593c-2.204,0-4.369,0.892-5.925,2.456c-1.564,1.556-2.463,3.722-2.463,5.934c0,2.205,0.9,4.37,2.463,5.934
		c1.556,1.556,3.721,2.456,5.925,2.456c2.211,0,4.369-0.9,5.933-2.456c1.563-1.563,2.455-3.729,2.455-5.934
		c0-2.212-0.892-4.378-2.455-5.934C172.505,102.485,170.339,101.593,168.128,101.593z"/>
</g>
</svg>
