<?xml version="1.0" encoding="utf-8"?>
<!-- Generator: Adobe Illustrator 21.0.0, SVG Export Plug-In . SVG Version: 6.00 Build 0)  -->
<svg version="1.1" id="Countryflags.com" xmlns="http://www.w3.org/2000/svg" xmlns:xlink="http://www.w3.org/1999/xlink" x="0px"
	 y="0px" viewBox="0 0 300 300" enable-background="new 0 0 300 300" xml:space="preserve">
<g>
	<defs>
		<rect id="SVGID_1_" width="300" height="300"/>
	</defs>
	<clipPath id="SVGID_2_">
		<use xlink:href="#SVGID_1_"  overflow="visible"/>
	</clipPath>
	<g clip-path="url(#SVGID_2_)">
		<g>
			<rect id="_x33__1_" x="-50" fill="#FF0000" width="400" height="300"/>
			<rect id="_x32__1_" x="50" fill="#FFFFFF" width="200" height="300"/>
			<path id="_x31__1_" fill="#FF0000" d="M149.997,68.75L136.352,94.2c-1.548,2.766-4.323,2.509-7.097,0.964l-9.879-5.116
				l7.363,39.091c1.548,7.142-3.419,7.142-5.871,4.054l-17.24-19.3l-2.799,9.802c-0.323,1.287-1.742,2.639-3.871,2.317
				l-21.801-4.584l5.726,20.818c1.226,4.632,2.182,6.55-1.237,7.772l-7.77,3.652l37.528,30.483c1.486,1.153,2.236,3.227,1.707,5.105
				l-3.285,10.779c12.922-1.489,24.5-3.73,37.428-5.111c1.141-0.122,3.052,1.762,3.044,3.084l-1.712,39.489h6.282l-0.989-39.405
				c-0.008-1.323,1.725-3.291,2.867-3.169c12.928,1.38,24.506,3.621,37.428,5.111l-3.285-10.779
				c-0.529-1.878,0.222-3.952,1.707-5.105l37.529-30.484l-7.771-3.652c-3.42-1.222-2.463-3.14-1.237-7.772l5.726-20.818
				l-21.801,4.584c-2.129,0.322-3.548-1.03-3.871-2.317l-2.799-9.802l-17.24,19.301c-2.452,3.088-7.42,3.088-5.871-4.054
				l7.363-39.091l-9.879,5.116c-2.774,1.545-5.548,1.802-7.097-0.964"/>
		</g>
	</g>
</g>
</svg>
