<?xml version="1.0" encoding="utf-8"?>
<!-- Generator: Adobe Illustrator 21.0.0, SVG Export Plug-In . SVG Version: 6.00 Build 0)  -->
<svg version="1.1" id="Countryflags.com" xmlns="http://www.w3.org/2000/svg" xmlns:xlink="http://www.w3.org/1999/xlink" x="0px"
	 y="0px" viewBox="0 0 300 300" enable-background="new 0 0 300 300" xml:space="preserve">
<g>
	<defs>
		<rect id="SVGID_1_" width="300" height="300"/>
	</defs>
	<clipPath id="SVGID_2_">
		<use xlink:href="#SVGID_1_"  overflow="visible"/>
	</clipPath>
	<g clip-path="url(#SVGID_2_)">
		<rect id="_x31_1" x="-50.001" fill="#EC2227" width="600.002" height="300"/>
		<rect id="_x31_0" x="-50.001" fill="#005EA5" width="600.002" height="200.001"/>
		<rect id="_x39_" x="-50.001" fill="#FFFFFF" width="600.002" height="100"/>
		<path id="_x38_" fill="#005EA5" d="M135.816,105.223l3.151-46.491c-24.564-11.641-53.056-11.641-77.62,0l3.15,46.491
			c1.415,20.891,15.616,38.723,35.661,44.777C120.201,143.946,134.402,126.114,135.816,105.223"/>
		<path id="_x37_" fill="#FFFFFF" d="M71.049,111.522c3.374,15.186,14.397,27.53,29.108,32.591
			c14.71-5.061,25.733-17.404,29.107-32.591L114.71,92.117l-5.821,7.762l-8.732-17.464l-8.732,17.464l-5.821-7.762L71.049,111.522"
			/>
		<path id="_x36_" fill="#005EA5" d="M72.349,116.373c2.68,4.641,8.613,6.231,13.254,3.552l0,0c3.002-1.734,6.701-1.734,9.702,0
			c3.002,1.733,6.702,1.733,9.703,0c3.002-1.734,6.701-1.734,9.702,0c4.64,2.679,10.575,1.089,13.254-3.552l0,0v2.801
			c-2.679,4.641-8.614,6.23-13.254,3.551l0,0c-3.002-1.733-6.7-1.733-9.702,0c-3.002,1.733-6.701,1.733-9.703,0
			c-3.001-1.733-6.7-1.733-9.702,0c-4.641,2.679-10.575,1.089-13.254-3.551l0,0V116.373z"/>
		<path id="_x35_" fill="#005EA5" d="M72.349,121.975c2.68,4.641,8.613,6.231,13.254,3.552l0,0c3.002-1.734,6.701-1.734,9.702,0
			c3.002,1.733,6.702,1.733,9.703,0c3.002-1.734,6.701-1.734,9.702,0c4.64,2.68,10.575,1.09,13.254-3.551v-0.001v2.801
			c-2.679,4.641-8.614,6.232-13.254,3.552l0,0c-3.002-1.733-6.7-1.733-9.702,0c-3.002,1.733-6.701,1.733-9.703,0
			c-3.001-1.733-6.7-1.733-9.702,0c-4.641,2.68-10.575,1.09-13.254-3.551c0-0.001,0-0.001,0-0.001V121.975z"/>
		<path id="_x34_" fill="#FDDB00" d="M100.157,69.074l0.727,2.378l2.423-0.559l-1.696,1.82l1.696,1.819l-2.423-0.559l-0.727,2.378
			l-0.728-2.378l-2.424,0.559l1.695-1.819l-1.695-1.82l2.424,0.559L100.157,69.074z"/>
		<path id="_x33_" fill="#FDDB00" d="M89.241,54.52l0.728,2.378l2.423-0.559l-1.695,1.82l1.695,1.819l-2.423-0.559l-0.728,2.378
			l-0.728-2.378l-2.422,0.559l1.695-1.819l-1.695-1.82l2.422,0.559L89.241,54.52z"/>
		<path id="_x32_" fill="#FDDB00" d="M111.072,54.52l0.727,2.378l2.424-0.559l-1.696,1.82l1.696,1.819l-2.424-0.559l-0.727,2.378
			l-0.727-2.378l-2.424,0.559l1.696-1.819l-1.696-1.82l2.424,0.559L111.072,54.52z"/>
		<path id="_x31_" fill="#EC2227" d="M64.07,57.495l3.222,47.54c1.316,19.417,14.338,36.069,32.865,42.029
			c18.526-5.959,31.549-22.612,32.865-42.029l3.222-47.54c0.901,0.427,1.809,0.839,2.723,1.236l-3.151,46.491
			c-1.414,20.891-15.615,38.723-35.659,44.778c-20.044-6.055-34.245-23.887-35.661-44.778l-3.15-46.491
			C62.261,58.334,63.169,57.922,64.07,57.495"/>
	</g>
</g>
</svg>
